<?xml version="1.0" encoding="utf-8"?>
<!-- Generator: Adobe Illustrator 16.0.3, SVG Export Plug-In . SVG Version: 6.00 Build 0)  -->
<!DOCTYPE svg PUBLIC "-//W3C//DTD SVG 1.1//EN" "http://www.w3.org/Graphics/SVG/1.1/DTD/svg11.dtd">
<svg version="1.1" id="Layer_1" xmlns="http://www.w3.org/2000/svg" xmlns:xlink="http://www.w3.org/1999/xlink" x="0px" y="0px"
	 width="360px" height="360px" viewBox="0 0 360 360" enable-background="new 0 0 360 360" xml:space="preserve">
<g>
	<path fill="#0D2445" d="M211.132,275.868c-1.684,4.521-6.217,6.649-10.639,5.47c0.109-0.145,0.211-0.302,0.289-0.49
		c5.556-13.366,8.732-27.648,9.286-42.12c0.262-6.89-0.054-13.813-0.935-20.652c-0.736-5.696-1.618-12.147-3.652-17.77
		c4.891-3.54,8.915-10.446,8.165-16.576c-0.834-6.803-11.103-4.437-15.477-3.779c-4.414,0.667-14.241,1.453-11.181,8.505
		c1.354,3.119,4.695,5.598,7.266,7.659c2.259,1.818,4.666,3.558,7.242,4.935c1.111,5.504,2.803,10.914,3.579,16.518
		c0.988,7.114,1.312,14.299,0.99,21.469c-0.62,13.932-3.696,27.605-9.027,40.485c-0.013,0.031-0.016,0.06-0.026,0.088
		c-3.276-2.541-4.456-6.915-3.965-11.004c0.223-1.845-2.72-2.812-3.267-0.885c-1.897,6.681,1.456,14.063,7.94,16.809
		c6.768,2.861,14.48-0.238,17.065-7.15C215.677,274.999,212.024,273.475,211.132,275.868z M195.406,191.598
		c-0.471,0.212-1.148,0.085-2.131-0.595c-1.283-0.885-2.625-2.904-2.146-4.563c0.485-1.677,2.102-2.337,3.538-2.866
		c-0.428,1.143-0.789,2.291-1.082,3.486c-0.129,0.527,0.029,0.918,0.306,1.177c-0.019,0.246-0.046,0.486-0.055,0.74
		c-0.038,0.985,0.934,1.402,1.695,1.128C195.459,190.603,195.422,191.099,195.406,191.598z"/>
	<path fill="#0D2445" d="M356.848,193.546c-7.642,1.702-15.164,4.655-22.624,7.035c-4.47,1.427-8.941,2.854-13.411,4.282
		c-0.746-7.978-2.187-15.894-4.069-23.54c-10.9-44.271-37.622-82.251-52.938-124.849c-0.667-1.857-3.265-2.027-3.906-0.025
		c-4.413,13.814-7.165,28.055-8.306,42.502c-0.163-0.019-0.326-0.043-0.487-0.059c-9.589-0.938-19.266-0.684-28.853,0.229
		c-15.137,1.443-30.061,4.519-44.952,7.584c-21.568,4.441-43.156,8.889-64.448,14.535c-5.986,1.588-11.947,3.268-17.872,5.072
		c-1.929,0.587-4.06,1.073-6.066,1.731c-0.071-0.274-0.203-0.547-0.41-0.807c-7.879-9.885-14.877-20.44-22.754-30.324
		c-0.874-1.092-3.108-0.593-3.315,0.846c-1.591,11.142-0.661,22.379,0.223,33.545c0.798,10.066,1.202,19.863,0.594,29.856
		c-0.321,0.263-0.539,0.663-0.534,1.215c0.197,20.703,1.931,41.37,4.975,61.846c-5.067-3.206-10.356-6.351-15.991-8.167
		c-6.524-2.102-13.156-1.051-19.596,0.822c-11.397,3.313-26.049,7.686-28.746,21.049c-0.149,0.728,0.347,1.754,1.248,1.644
		c7.102-0.862,13.656-2.959,20.257-5.133c11.416-1.048,25.909-3.328,34.516-5.827c0.28,0.002,0.56,0.01,0.84,0.013
		c-7.959,3.021-15.515,7.04-22.423,12.067c-4.383,3.191-8.696,6.706-12.303,10.775c-1.628,1.832-3.136,3.806-4.289,5.977
		c-0.961,1.814-2.637,4.924-2.265,7.029c0.417,2.334,3.955,3.68,6.098,4.022c2.951,0.471,5.855-0.486,8.444-1.849
		c5.502-2.884,10.054-7.354,14.637-11.631c0.976-0.612,1.942-1.23,2.877-1.852c2.914-1.933,5.518-4.493,7.78-7.217
		c1.226-1.097,2.392-2.279,3.464-3.687c2.491-3.279,4.692-6.824,6.648-10.464c1.036,6.056,2.28,12.114,3.876,18.064
		c-0.702,0.027-1.403,0.036-2.104,0.067c-4.982,0.229-11.401-0.36-16.026,1.604c-0.695,0.298-0.496,1.425,0.193,1.585
		c2.601,0.608,5.37,0.044,8.018-0.135c3.073-0.211,6.15-0.38,9.228-0.509c0.467-0.021,0.937-0.025,1.404-0.042
		c1.005,3.493,2.145,6.941,3.449,10.324c-3.711,0.621-7.419,1.265-11.121,1.933c-3.304,0.594-6.6,1.215-9.892,1.854
		c-3.329,0.646-6.911,0.991-10.017,2.372c-0.935,0.411-0.435,1.816,0.479,1.829c3.177,0.054,6.385-0.944,9.495-1.54
		c3.532-0.682,7.064-1.34,10.601-1.983c3.811-0.69,7.626-1.353,11.445-1.995c1.108,2.676,2.324,5.312,3.67,7.885
		c-9.059,2.651-18.08,5.409-27.008,8.39c-1.525,0.506-0.948,2.843,0.64,2.436c9.375-2.413,18.704-5.077,28.005-7.851
		c19.715,34.279,60.259,42.337,96.929,38.631c19.761-1.999,39.686-5.811,58.935-10.681c17.897-4.527,35.525-11.098,50.379-22.29
		c14.385-10.834,25.443-25.609,29.536-43.334c0.01-0.04,0.016-0.079,0.024-0.116c2.779-0.578,5.555-1.184,8.32-1.826
		c4.859-1.13,10.505-1.873,14.93-4.224c0.795-0.424,0.477-1.772-0.449-1.726c-4.597,0.235-9.306,2.08-13.783,3.146
		c-2.809,0.666-5.623,1.293-8.445,1.893c0.69-3.527,1.166-7.093,1.448-10.683c10.602-2.705,21.15-5.604,31.608-8.763
		c1.533-0.461,0.925-2.838-0.639-2.413c-10.252,2.8-20.506,5.55-30.783,8.204c0.236-4.787,0.152-9.603-0.201-14.404
		c4.617-1.47,9.234-2.938,13.854-4.411c7.56-2.413,15.482-4.398,22.8-7.473C358.906,195.103,358.04,193.281,356.848,193.546z
		 M56.984,232.778c3.438-1.49,6.957-2.799,10.553-3.887c-0.138,0.254-0.28,0.506-0.419,0.761
		C65.111,230.163,61.449,231.182,56.984,232.778z M259.416,147.335c0.146,0.022,0.299,0.032,0.466,0.001
		c9.854-1.803,18.153,5.229,19.603,14.964c1.525,10.221-6.175,21.484-16.807,22.39c-9.168,0.78-16.871-6.659-17.789-15.563
		C243.914,159.665,250.297,149.878,259.416,147.335z M122.096,180.6c0.14,0.021,0.283,0.034,0.444,0.007
		c9.757-1.663,18.387,4.861,20.309,14.53c2.059,10.36-5.616,21.522-16.215,22.844c-9.397,1.171-17.908-5.859-19.291-15.087
		C105.867,193.046,112.65,183.087,122.096,180.6z M71.004,202.975c2.883-5.75,7.094-10.817,11.937-15.28
		C78.82,192.649,74.137,198.791,71.004,202.975z M132.525,120.706c2.049,6.73,4.096,13.467,6.144,20.197
		c0.271,0.89,0.576,1.833,1.294,2.422c2.689,2.208,5.191-1.677,5.557-3.922c1.128-6.891,0.264-14.607-1.015-21.418
		c7.485-1.748,14.97-3.497,22.457-5.246c2.313,8.526,4.981,16.956,8.001,25.261c0.51,1.406,1.068,2.866,2.187,3.861
		c1.117,0.996,2.965,1.336,4.082,0.34c0.747-0.661,0.979-1.707,1.153-2.691c1.735-9.879,0.885-20.197-2.437-29.657
		c7.295-1.319,14.587-2.64,21.884-3.961c0.435,9.407,2.871,18.716,7.105,27.128c0.538,1.072,1.384,2.291,2.58,2.179
		c1.288-0.122,1.854-1.665,2.103-2.935c1.829-9.317,2.361-18.881,1.583-28.341c12.268-1.727,24.732-2.035,37.072-0.908
		c1.145,0.62,3.015,0.064,3.133-1.673c0.867-12.919,3.107-25.633,6.651-38.052c9.599,24.908,22.703,48.273,33.813,72.513
		c-15.008-4.448-30.707-2.512-45.819,0.673c-17.589,3.706-34.928,7.676-52.743,10.211c-32.941,4.694-67.225,8.346-96.609,25.277
		c-12.465,7.181-25.554,17.009-31.991,30.276c-1.257-12.024-2.068-24.099-2.55-36.17c0.009-0.032,0.033-0.053,0.041-0.087
		c2.513-10.53,1.176-22.116,0.405-32.789c-0.715-9.881-1.716-19.941-0.882-29.86c6.634,8.713,12.803,17.777,19.583,26.381
		c-1.556,1.429,0.129,3.125,2.575,2.494C102.765,128.378,117.646,124.542,132.525,120.706z M25.67,221.46
		c-8.694,4.146-17.171,9.596-17.645,12.376c-0.145,0.849,2.213,1.208,6.029,1.205c-2.508,0.683-5.061,1.244-7.674,1.65
		C9.061,228.38,17.369,224.207,25.67,221.46z M65.787,225.992c0.071,0.044,0.142,0.088,0.213,0.132
		c-0.123-0.005-0.247-0.008-0.37-0.013C65.689,226.072,65.732,226.032,65.787,225.992z M22.321,261.328
		c1.299-3.77,3.837-7.025,6.739-9.921c-3.791,5.399-5.979,10.831-6.293,13.501C21.829,264.165,21.725,263.063,22.321,261.328z
		 M30.135,265.311c-1.077,0.392-2.211,0.637-3.352,0.665c2.712-0.923,6.573-2.687,10.785-4.896
		C35.245,262.847,32.795,264.344,30.135,265.311z M317.059,222.967c-15.256,3.897-30.561,7.578-45.986,10.866
		c-1.507,0.32-0.896,2.62,0.61,2.313c15.083-3.102,30.153-6.47,45.125-10.21c-0.356,3.562-0.918,7.077-1.707,10.533
		c-0.895,0.179-1.783,0.373-2.678,0.543c-10.588,2.023-21.26,3.596-31.977,4.709c-1.498,0.157-1.531,2.517-0.009,2.369
		c10.481-1.007,20.917-2.425,31.269-4.354c0.908-0.168,1.813-0.361,2.72-0.537c-2.847,10.678-7.978,20.702-16.191,29.429
		c-25.637,27.244-65.563,33.965-100.808,39.789c-36.116,5.968-80.158,6.149-105.021-25.572c-1.979-2.522-3.75-5.174-5.369-7.913
		c14.045-4.233,28.041-8.67,42.058-12.846c1.508-0.449,0.896-2.812-0.625-2.369c-14.3,4.183-28.729,8.13-43.083,12.287
		c-1.297-2.416-2.486-4.892-3.561-7.421c1.495-0.244,2.988-0.502,4.485-0.737c14.086-2.233,28.231-4.126,42.406-5.738
		c1.519-0.17,1.558-2.576,0.004-2.413c-13.93,1.462-27.814,3.263-41.652,5.419c-2.082,0.323-4.159,0.671-6.238,1.01
		c-1.265-3.211-2.375-6.491-3.357-9.813c4.118-0.111,8.238-0.181,12.358-0.149c12.08,0.085,24.152,0.781,36.165,2.023
		c1.571,0.157,1.558-2.28,0.008-2.45c-12.254-1.35-24.552-2.099-36.878-2.168c-4.129-0.025-8.261,0.047-12.391,0.165
		c-1.775-6.45-3.114-13.021-4.222-19.508c16.334,5.571,34.567,5.183,50.838-0.443c8.433-2.918,16.357-7.223,23.31-12.826
		c8.594-6.93,15.051-15.945,22.416-24.069c6.343-6.997,13.633-13.286,22.428-16.477c0.194,0.071,0.407,0.101,0.646,0.018
		c12.006-4.146,24.988-3.592,35.765,3.654c5.241,3.528,9.514,8.216,15.179,11.152c5.119,2.65,10.733,4.128,16.437,4.818
		c11.754,1.428,24.748,0.047,36.155-3.084c7.093-1.95,13.558-6.442,16.556-13.024c2.231,8.552,3.893,17.374,4.633,26.181
		c-1.977,0.631-3.951,1.262-5.928,1.894c-15.286,4.882-30.572,9.761-45.841,14.704c-1.46,0.475-0.869,2.789,0.617,2.325
		c15.541-4.877,31.062-9.827,46.583-14.769c1.586-0.506,3.173-1.011,4.759-1.516C317.363,213.526,317.379,218.276,317.059,222.967z"
		/>
	<path fill="#0D2445" d="M123.641,206.588c4.507,5.099,9.553,0.176,9.597-5.018c0.025-2.549-0.97-8.357-3.003-10.927
		c-2.129-2.692-5.362-3.239-8.204,0.06c-2.819,3.274-2.005,8.06-0.615,11.796C121.961,203.97,122.615,205.432,123.641,206.588z"/>
	<path fill="#0D2445" d="M259.658,173.931c4.497,4.975,9.237-0.086,9.14-5.277c-0.049-2.547-1.174-8.329-3.21-10.841
		c-2.135-2.636-5.272-3.095-7.929,0.281c-2.636,3.353-1.713,8.114-0.267,11.812C257.964,171.359,258.637,172.801,259.658,173.931z"
		/>
	<path fill="#0D2445" d="M264.068,102.538c2.962-0.181,5.865-0.708,8.729-1.489c0.601-0.163,1.156-0.904,0.902-1.549
		c-2.276-5.735-5.184-11.214-8.924-16.134c-0.574-0.753-1.972-0.343-2.143,0.549c-0.095,0.485-0.168,0.973-0.242,1.458
		c-0.008,0.028-0.026,0.044-0.034,0.072c-0.916,3.204-1.511,6.521-2.103,9.797c-0.297,1.641-1.572,4.887-0.626,6.475
		C260.469,103.129,262.714,102.619,264.068,102.538z M269.67,98.932c0.03,0.082,0.062,0.164,0.095,0.247
		c-0.228,0.048-0.455,0.118-0.68,0.163C269.303,99.255,269.506,99.116,269.67,98.932z M267.88,99.27c0.002-0.053,0-0.102,0.003-0.15
		c0.201,0.207,0.437,0.303,0.687,0.312c-0.251,0.05-0.501,0.08-0.75,0.119C267.838,99.459,267.875,99.375,267.88,99.27z
		 M265.368,99.591c0.049,0.121,0.119,0.218,0.187,0.315c-0.304,0.038-0.599,0.083-0.872,0.128c0.139-0.452,0.266-0.904,0.382-1.357
		C265.171,98.981,265.251,99.287,265.368,99.591z M264.654,87.591c0.074,0.113,0.154,0.218,0.229,0.329
		c-0.091,0.006-0.179,0.019-0.269,0.044C264.628,87.842,264.641,87.717,264.654,87.591z"/>
	<path fill="#0D2445" d="M69.924,115.871c-0.764-0.552-1.47,0.165-1.479,0.91c1.481,6.305,0.904,12.946,2.171,19.276
		c0.014,0.005,0.023,0.018,0.039,0.019c0.331,0.26,0.772,0.384,1.152,0.242c3.65-1.357,7.246-2.833,10.798-4.432
		c0.855-0.383,0.769-1.464,0.299-2.074C79.125,124.911,74.974,119.528,69.924,115.871z"/>
</g>
<path fill="#F26722" d="M74.972,43.439c-4.889,0.417-9.722,1.812-14.435,3.105c-2.326,0.638-4.643,1.305-6.958,1.98
	c-0.549,0.16-2.276,0.397-3.303,0.758c-0.196-0.563-0.536-1.132-0.771-1.662c-0.901-2.033-1.788-4.071-2.678-6.109
	c-1.891-4.324-3.576-8.901-5.927-13c-0.262-0.457-0.762-0.58-1.206-0.473c-0.124,0.022-0.242,0.069-0.351,0.141
	c-0.003,0.003-0.007,0.005-0.012,0.009c-0.021,0.014-0.041,0.025-0.061,0.042c-0.29,0.2-0.481,0.516-0.421,0.905
	c-1.203,4.603-1.875,9.357-2.76,14.028c-0.447,2.364-0.903,4.729-1.434,7.077c-0.113,0.503-0.276,1.012-0.358,1.521
	c-0.04,0.242-0.352,0.853-0.184,0.83c-0.391,0.21-0.97,0.322-1.336,0.459c-7.269,2.73-14.751,4.949-21.92,7.94
	c-0.938,0.391-1.338,2.132,0,2.33c4.204,0.62,8.445,1.001,12.672,1.415c2.277,0.222,4.556,0.438,6.832,0.663
	c0.937,0.092,2.524,0.549,3.644,0.514c0,0.261,0.01,0.517-0.004,0.677c-0.184,1.999-0.4,3.994-0.609,5.991
	c-0.479,4.575-0.999,9.148-1.324,13.736c-0.064,0.91,1.105,1.572,1.857,1.065c1.025-0.69,1.755-1.925,2.489-2.889
	c1.394-1.833,2.743-3.7,4.094-5.563c2.122-2.93,4.112-6.162,6.489-8.923c6.73,4.572,13.096,9.666,19.863,14.186
	c0.927,0.62,2.028-0.4,1.792-1.377c-1.919-7.96-8.327-14.092-11.597-21.499c6.505-5.094,13.886-9.411,18.959-16.056
	C76.561,44.546,75.829,43.365,74.972,43.439z M49.686,49.563c-0.049,0.035-0.089,0.071-0.12,0.109
	C49.605,49.625,49.645,49.59,49.686,49.563z M63.531,53.451c-2.875,2.104-6.11,4.024-8.644,6.554
	c-0.425,0.229-0.684,0.679-0.44,1.271c2.712,6.596,8.056,12.215,10.756,18.824c-5.978-4.187-11.721-8.711-17.792-12.764
	c-0.43-0.287-1.131-0.189-1.479,0.191c-2.477,2.702-4.466,5.968-6.615,8.925c-1.423,1.959-2.848,3.917-4.303,5.852
	c-0.048,0.064-0.102,0.136-0.157,0.211c0.335-3.679,0.741-7.353,1.118-11.025c0.196-1.918,0.458-3.846,0.562-5.773
	c0.053-0.952,0.13-1.73-0.912-2.162c-0.9-0.372-2.215-0.296-3.17-0.394c-2.227-0.227-4.455-0.431-6.683-0.644
	c-3.256-0.309-6.527-0.585-9.783-0.953c6.087-2.269,12.315-4.178,18.355-6.567c1.502-0.593,1.852-0.972,2.254-2.603
	c0.617-2.515,1.104-5.063,1.584-7.606c0.744-3.929,1.49-7.863,2.178-11.803c1.456,3.449,3.076,6.846,4.573,10.26
	c0.915,2.086,1.824,4.176,2.753,6.254c0.355,0.794,0.717,2.259,1.663,2.561c0.834,0.266,2.247-0.417,3.007-0.638
	c2.22-0.647,4.438-1.303,6.662-1.931c4.251-1.202,8.638-2.563,13.05-3.27C69.527,48.952,66.521,51.262,63.531,53.451z"/>
<path fill="#0D2445" d="M86.97,23.897c-0.135-1.937-0.19-11.034-0.207-14.931c-0.003-0.519,0.674-0.717,0.956-0.281l8.083,12.573
	c0.117,0.18,0.332,0.271,0.543,0.228l14.119-2.932c0.478-0.099,0.815,0.454,0.511,0.833l-7.82,9.772
	c-0.149,0.185-0.152,0.447-0.01,0.636l8.803,11.688c0.313,0.415-0.111,0.981-0.598,0.797l-15.172-5.734
	c-0.241-0.09-0.51,0.005-0.636,0.231c-1.314,2.366-8.171,14.699-8.247,14.442c-0.074-0.258-0.874-14-1.016-16.466
	c-0.013-0.225-0.171-0.415-0.388-0.472l-11.406-2.967c-0.468-0.122-0.531-0.76-0.096-0.97l12.288-5.944
	C86.87,24.307,86.985,24.109,86.97,23.897z"/>
<g>
	<path fill="#F26722" d="M299.532,351.456c0.509-7.243,1.884-14.511,2.896-21.693c1.489-10.582,2.887-21.188,4.621-31.732
		c0.459-2.787,0.672-5.777,1.479-8.494c-0.652,0-1.305,0-1.957,0c6.799,17.699,15.185,34.756,22.008,52.445
		c0.492-0.378,0.983-0.757,1.476-1.135c-13.831-7.1-28.265-13.064-42.308-19.729c-2.563-1.217-5.132-2.432-7.723-3.591
		c-0.174,0.646-0.348,1.29-0.524,1.937c19.908-1.563,39.63-7.045,58.524-13.284c-0.396-0.513-0.791-1.026-1.185-1.54
		c-0.783,1.566-2.395,2.998-3.545,4.327c-2.702,3.12-5.439,6.208-8.168,9.304c-6.649,7.539-13.314,15.07-19.741,22.803
		c-2.661,3.202-5.336,6.427-7.7,9.858c-0.762,1.104,1.038,2.144,1.794,1.049c4.888-7.095,10.803-13.556,16.445-20.047
		c6.081-6.999,12.271-13.907,18.352-20.907c1.411-1.623,3.398-3.379,4.374-5.328c0.383-0.764-0.259-1.846-1.183-1.541
		c-18.707,6.178-38.258,11.672-57.968,13.229c-0.914,0.072-1.556,1.476-0.525,1.936c14.394,6.425,28.665,13.135,42.928,19.847
		c2.384,1.122,4.796,2.209,7.139,3.415c0.704,0.361,1.815-0.257,1.476-1.136c-6.807-17.696-15.16-34.765-21.988-52.452
		c-0.348-0.9-1.655-1.023-1.957,0c-0.663,2.242-0.87,4.707-1.215,7.01c-0.715,4.813-1.411,9.629-2.131,14.44
		c-1.599,10.697-3.083,21.414-4.505,32.137c-0.389,2.942-0.892,5.909-1.09,8.874C297.549,352.679,299.445,352.671,299.532,351.456
		L299.532,351.456z"/>
</g>
</svg>
